<svg width="16" height="16" viewBox="0 0 16 16" fill="none" xmlns="http://www.w3.org/2000/svg">
<path d="M14.5909 3.69071C14.5343 3.583 14.4494 3.4928 14.3453 3.42982C14.2412 3.36685 14.1219 3.3335 14.0002 3.33337H2.0002C1.87876 3.33388 1.75976 3.36747 1.65599 3.43055C1.55222 3.49363 1.4676 3.5838 1.41125 3.69137C1.35489 3.79894 1.32893 3.91984 1.33614 4.04106C1.34336 4.16229 1.38348 4.27925 1.4522 4.37937L7.4522 13.046C7.51336 13.1349 7.5952 13.2075 7.69066 13.2577C7.78613 13.3078 7.89236 13.3341 8.0002 13.3341C8.10805 13.3341 8.21428 13.3078 8.30974 13.2577C8.40521 13.2075 8.48704 13.1349 8.5482 13.046L14.5482 4.37937C14.6176 4.27945 14.6583 4.16242 14.6658 4.041C14.6733 3.91959 14.6474 3.79843 14.5909 3.69071ZM8.0002 11.4954L3.2722 4.66671H12.7282L8.0002 11.4954Z" fill="#FFFAFF"/>
</svg>
