<svg width="16" height="16" viewBox="0 0 16 16" fill="none" xmlns="http://www.w3.org/2000/svg">
<path d="M14.5909 12.3093C14.5343 12.417 14.4494 12.5072 14.3453 12.5702C14.2412 12.6331 14.1219 12.6665 14.0002 12.6666H2.0002C1.87876 12.6661 1.75976 12.6325 1.65599 12.5695C1.55222 12.5064 1.4676 12.4162 1.41125 12.3086C1.35489 12.2011 1.32893 12.0802 1.33614 11.9589C1.34336 11.8377 1.38348 11.7208 1.4522 11.6206L7.4522 2.95396C7.51336 2.86513 7.5952 2.7925 7.69066 2.74233C7.78613 2.69215 7.89236 2.66594 8.0002 2.66594C8.10805 2.66594 8.21428 2.69215 8.30974 2.74233C8.40521 2.7925 8.48704 2.86513 8.5482 2.95396L14.5482 11.6206C14.6176 11.7205 14.6583 11.8376 14.6658 11.959C14.6733 12.0804 14.6474 12.2016 14.5909 12.3093ZM8.0002 4.50463L3.2722 11.3333H12.7282L8.0002 4.50463Z" fill="#FFFAFF"/>
</svg>
