<?xml version="1.0"?>
<svg xmlns="http://www.w3.org/2000/svg" xmlns:xlink="http://www.w3.org/1999/xlink" xmlns:svgjs="http://svgjs.com/svgjs" version="1.1" width="512" height="512" x="0" y="0" viewBox="0 0 512 512" style="enable-background:new 0 0 512 512" xml:space="preserve" class=""><g>
<path xmlns="http://www.w3.org/2000/svg" style="" d="M243.968,378.528c3.04,3.488,7.424,5.472,12.032,5.472s8.992-2.016,12.032-5.472l112-128  c4.16-4.704,5.12-11.424,2.528-17.152S374.272,224,368,224h-64V16c0-8.832-7.168-16-16-16h-64c-8.832,0-16,7.168-16,16v208h-64  c-6.272,0-11.968,3.68-14.56,9.376c-2.624,5.728-1.6,12.416,2.528,17.152L243.968,378.528z" fill="#ffffff" data-original="#2196f3" class=""/>
<path xmlns="http://www.w3.org/2000/svg" style="" d="M432,352v96H80v-96H16v128c0,17.696,14.336,32,32,32h416c17.696,0,32-14.304,32-32V352H432z" fill="#ffffff" data-original="#607d8b" class=""/>
<g xmlns="http://www.w3.org/2000/svg">
</g>
<g xmlns="http://www.w3.org/2000/svg">
</g>
<g xmlns="http://www.w3.org/2000/svg">
</g>
<g xmlns="http://www.w3.org/2000/svg">
</g>
<g xmlns="http://www.w3.org/2000/svg">
</g>
<g xmlns="http://www.w3.org/2000/svg">
</g>
<g xmlns="http://www.w3.org/2000/svg">
</g>
<g xmlns="http://www.w3.org/2000/svg">
</g>
<g xmlns="http://www.w3.org/2000/svg">
</g>
<g xmlns="http://www.w3.org/2000/svg">
</g>
<g xmlns="http://www.w3.org/2000/svg">
</g>
<g xmlns="http://www.w3.org/2000/svg">
</g>
<g xmlns="http://www.w3.org/2000/svg">
</g>
<g xmlns="http://www.w3.org/2000/svg">
</g>
<g xmlns="http://www.w3.org/2000/svg">
</g>
</g></svg>
